It's DVDRip "Spin City" full Season 4 without (yet) subtitle. Rip by SAiNTS.


Video

Format                                   : MPEG-4 Visual
Codec ID                                 : XVID
Bit rate                                 : 994 Kbps
Width                                    : 560 pixels
Height                                   : 416 pixels
Display aspect ratio                     : 4:3
Frame rate                               : 23.976 fps
Color space                              : YUV
Chroma subsampling                       : 4:2:0
Bit depth                                : 8 bits
Scan type                                : Progressive
Compression mode                         : Lossy
Bits/(Pixel*Frame)                       : 0.178
Stream size                              : 152 MiB (87%)


Audio

Format                                   : MPEG Audio
Format version                           : Version 1
Format profile                           : Layer 3
Mode                                     : Joint stereo
Mode extension                           : MS Stereo
Codec ID                                 : 55
Codec ID/Hint                            : MP3
Bit rate mode                            : Variable
Bit rate                                 : 128 Kbps
Channel(s)                               : 2 channels
Sampling rate                            : 48.0 KHz
Compression mode                         : Lossy
Stream size                              : 20.2 MiB (12%)
Alignment                                : Aligned on interleaves
Interleave, duration                     : 24 ms (0.58 video frame)
Interleave, preload duration             : 244 ms
Writing library                          : LAME3.96r
